PathFileType	4	(X/Y/Z)	C:/Users/opensim2020/Desktop/walking_exp_matlab/subject01_walking05_straight_01.trc	
DataRate	CameraRate	NumFrames	NumMarkers	Units	OrigDataRate	OrigDataStartFrame	OrigNumFrames	
100.00	100.00	7	43	mm	100.00	904	239	
Frame#	Time	LFHD			RFHD			LBHD			RBHD			C7			T10			CLAV			STRN			RBAK			LSHO			LUPA			LELB			LFRM			LWRA			LWRB			LFIN			RSHO			RUPA			RELB			RFRM			RWRA			RWRB			RFIN			LASI			RASI			LPSI			RPSI			LTHI			LKNE			LTIB			LANK			LHEE			LTOE			RTHI			RKNE			RTIB			RANK			RHEE			RTOE			*39			*40			*41			*42			
		X1	Y1	Z1	X2	Y2	Z2	X3	Y3	Z3	X4	Y4	Z4	X5	Y5	Z5	X6	Y6	Z6	X7	Y7	Z7	X8	Y8	Z8	X9	Y9	Z9	X10	Y10	Z10	X11	Y11	Z11	X12	Y12	Z12	X13	Y13	Z13	X14	Y14	Z14	X15	Y15	Z15	X16	Y16	Z16	X17	Y17	Z17	X18	Y18	Z18	X19	Y19	Z19	X20	Y20	Z20	X21	Y21	Z21	X22	Y22	Z22	X23	Y23	Z23	X24	Y24	Z24	X25	Y25	Z25	X26	Y26	Z26	X27	Y27	Z27	X28	Y28	Z28	X29	Y29	Z29	X30	Y30	Z30	X31	Y31	Z31	X32	Y32	Z32	X33	Y33	Z33	X34	Y34	Z34	X35	Y35	Z35	X36	Y36	Z36	X37	Y37	Z37	X38	Y38	Z38	X39	Y39	Z39	X40	Y40	Z40	X41	Y41	Z41	X42	Y42	Z42	X43	Y43	Z43	

150	1.490	-1101.19385	230.38567	1671.33167	-986.93011	237.85147	1683.77124	-1095.35522	127.97860	1599.46497	-974.63629	132.93465	1610.61084	-1040.89380	118.17244	1423.80371	-1012.82520	95.72655	1131.90186	-1038.20081	266.62152	1365.20251	-1034.77466	316.98535	1212.02637	-947.20593	75.18299	1233.38623	-1200.31006	202.73862	1382.13281	-1275.02881	170.42848	1192.80188	-1265.21521	146.36172	1046.24915	-1282.76697	169.90784	934.27216	-1254.34802	228.36998	809.19916	-1282.60876	175.14972	811.78284	-1282.53003	210.38834	733.73419	-887.04230	204.69745	1397.69226	-771.71991	164.82799	1202.22583	-755.40887	181.55524	1077.81689	-725.23309	239.92683	970.35541	-749.58472	345.19464	878.66412	-708.25446	305.88248	868.84210	-707.37799	363.64499	808.04608	-1113.65222	276.50040	932.14471	-897.73822	267.07410	927.72662	-1072.36670	87.69256	940.61847	-927.93457	83.30406	943.43054	-1172.02246	310.82297	610.58551	-1152.17126	331.07770	478.97702	-1163.73853	308.97592	289.58215	-1110.66248	312.76208	70.84405	-1058.45959	269.87985	40.75721	-1107.50037	461.54745	40.39742	-835.69153	184.03111	595.10809	-848.30353	164.59921	435.84155	-850.37140	20.73981	329.49307	-892.98163	-113.75311	170.26942	-951.90045	-163.02888	174.80246	-902.05261	-53.89634	35.34129	-1011.60303	218.28125	1712.54565	-3102.08813	1973.02637	1023.87640	-3140.66919	2012.48218	1022.02820			 
151	1.500	-1103.51074	240.37022	1672.13586	-989.24347	247.28551	1684.63806	-1098.04858	137.87029	1600.40894	-977.37012	142.17426	1611.71680	-1043.37146	127.62838	1424.69189	-1015.07159	105.02769	1132.97510	-1040.22693	275.93829	1366.22217	-1036.46851	326.37656	1213.08838	-949.17090	83.98842	1234.62329	-1202.43872	212.48000	1382.86804	-1277.32190	182.02676	1193.34729	-1267.76355	159.33557	1046.56750	-1285.37109	184.17973	934.88971	-1257.17017	244.12926	810.79962	-1285.38135	190.73956	812.47943	-1285.31604	226.74373	734.79901	-889.33887	213.69757	1399.04968	-773.65527	172.89406	1203.95911	-758.18512	188.20882	1079.29041	-727.78107	245.13124	971.10217	-751.73193	349.25708	877.88995	-710.41766	309.89932	868.73743	-709.66376	366.63657	806.91669	-1115.80981	285.60626	933.27759	-900.01294	275.33633	928.60107	-1074.05225	96.94226	941.67657	-929.44580	92.52682	944.16290	-1173.61792	316.55826	610.54370	-1153.71680	335.93683	478.98090	-1164.33923	310.69556	289.67972	-1110.82544	312.81445	70.91478	-1058.50098	269.85657	40.62099	-1107.66528	461.77014	39.91021	-836.05652	200.18280	594.54718	-848.80975	183.14722	435.87427	-851.49731	37.31326	332.93402	-893.98047	-100.39427	176.57205	-952.56543	-149.07541	184.52196	-903.77942	-50.00559	37.92940	-1014.27771	227.83607	1713.37781	-3101.88770	1973.20532	1023.49854	-3140.74023	2012.52429	1022.07281			 
152	1.510	-1105.79321	250.23264	1672.96130	-991.86145	256.65512	1685.65149	-1100.78101	147.60860	1601.31934	-980.07764	151.30739	1612.67737	-1045.72668	136.95215	1425.54932	-1017.26892	114.05741	1134.01563	-1042.16235	285.30182	1367.16809	-1038.14795	335.70374	1214.02808	-951.15314	93.34174	1235.71973	-1204.56067	222.20941	1383.52600	-1279.63635	193.59300	1193.92993	-1270.32898	172.28674	1046.82373	-1288.06897	198.60022	935.60297	-1259.52979	259.64789	811.85321	-1288.23413	206.63496	813.22491	-1288.24463	243.58165	736.00342	-891.57294	222.84511	1400.24634	-775.38330	181.09172	1205.63245	-760.88501	194.68422	1080.62720	-730.25452	250.14427	971.69861	-753.92773	353.39737	876.87341	-712.50696	313.81281	868.52728	-712.03241	369.60464	805.62848	-1117.89001	294.52695	934.17352	-901.86298	284.01346	929.64691	-1075.66406	105.94286	942.63617	-931.01666	101.32047	944.72394	-1175.15222	321.83688	610.48682	-1155.26440	340.31671	478.87851	-1165.01990	311.89841	289.65286	-1111.04248	312.70660	70.83814	-1058.65271	269.70615	40.64443	-1107.97791	461.93378	39.69149	-836.79498	216.00710	594.03345	-849.66040	202.06458	435.69724	-852.08588	54.48771	336.17938	-895.19305	-86.35325	182.97028	-952.97931	-135.22060	193.92628	-905.20490	-42.42107	42.76959	-1016.50128	237.31432	1714.24036	-3101.85327	1973.16370	1023.32751	-3140.67993	2012.47681	1021.93292			 
153	1.520	-1107.79858	260.06607	1673.65442	-993.96716	265.82822	1686.45435	-1103.52490	157.24220	1602.32471	-982.66058	160.42509	1613.62720	-1047.94238	146.09180	1426.45313	-1019.40424	123.01328	1134.93542	-1043.94800	294.53412	1368.03577	-1039.66565	344.84521	1214.87561	-953.19666	102.56841	1236.72595	-1206.30457	231.99216	1384.22852	-1281.88672	205.16434	1194.55652	-1273.00427	185.28630	1047.16382	-1290.78503	213.11795	936.28699	-1262.17639	275.69540	813.33289	-1291.11267	222.76898	814.03998	-1291.14636	260.82458	737.34283	-893.52356	231.88426	1401.36255	-776.94275	189.36809	1207.21912	-763.52399	201.10701	1081.81897	-732.64539	255.24474	972.27875	-756.15936	357.29813	875.91089	-714.68732	317.55493	868.17682	-714.67529	372.26437	804.05005	-1120.08936	303.36832	934.84015	-903.64886	292.57581	930.72626	-1077.35242	114.75459	943.52991	-932.59760	109.88276	944.98193	-1176.63208	327.08823	610.68555	-1156.83057	344.30621	478.58038	-1165.74976	312.97406	289.53714	-1111.21387	312.63354	70.81801	-1058.67212	269.67151	40.71019	-1108.31580	462.26367	39.53291	-837.78467	231.79979	593.59357	-850.99115	221.27985	435.54666	-852.25787	72.54420	338.92929	-897.03229	-71.73955	189.61127	-954.04871	-120.97311	202.63611	-907.22992	-33.62962	48.00364	-1018.73859	246.67360	1715.04211	-3101.94604	1973.11780	1023.40540	-3140.65112	2012.51477	1022.04602			 
154	1.530	-1109.94995	269.74411	1674.49219	-995.79022	275.10995	1687.45642	-1105.79956	167.02451	1603.02393	-985.02197	169.59790	1614.62109	-1049.89636	155.34517	1427.35376	-1021.42676	131.86757	1135.88452	-1045.58850	303.80283	1368.89185	-1041.10132	353.89114	1215.65686	-955.31281	111.63523	1237.71899	-1208.04724	241.67473	1384.95728	-1284.05017	216.67979	1195.18835	-1275.60193	198.26274	1047.47974	-1293.48633	227.71458	936.94733	-1264.63684	291.77115	814.60767	-1294.10583	239.19559	814.94135	-1294.16260	278.36331	738.89063	-895.32257	240.94925	1402.39478	-778.32788	197.59727	1208.74561	-766.01782	207.57236	1082.90222	-735.01263	259.98450	972.44366	-758.45782	361.11499	874.99500	-716.96112	320.99854	867.58917	-717.21661	374.91177	802.48871	-1121.58618	311.84875	935.47040	-905.36530	300.71521	931.53058	-1078.98132	123.33705	944.31567	-934.43610	118.30797	945.01416	-1178.24036	331.92017	610.36713	-1158.40320	347.84711	478.21249	-1166.56433	314.20648	289.41196	-1111.45642	312.43396	70.77589	-1058.68567	269.61749	40.73431	-1108.54529	462.15833	39.18765	-839.24084	247.21327	593.56573	-852.28680	240.21991	435.59100	-852.60706	90.98695	340.95432	-899.13647	-56.40395	196.36919	-956.50220	-105.66915	209.84540	-907.07062	-20.93101	53.59665	-1020.91791	255.98466	1715.99451	-3101.86890	1973.05432	1023.20001	-3140.62622	2012.55359	1022.08075			 
155	1.540	-1111.85583	279.35971	1675.30103	-997.75439	284.27472	1688.40088	-1108.02917	176.58495	1603.82703	-987.29175	178.65593	1615.54395	-1051.71265	164.61853	1428.38660	-1023.31140	140.39078	1136.94434	-1047.08691	313.01865	1369.66211	-1042.47412	362.79941	1216.36768	-957.43744	120.64205	1238.66028	-1209.58936	251.26537	1385.67212	-1286.11938	228.17967	1195.87390	-1278.10486	211.20912	1047.83557	-1296.18091	242.35077	937.72253	-1267.46252	308.25232	816.38330	-1297.01660	255.79378	815.95221	-1297.27783	296.45575	740.66327	-896.96869	250.07556	1403.38464	-779.73096	205.75478	1210.16272	-768.36115	214.21237	1083.92090	-737.36993	264.84445	972.57037	-760.56494	364.69388	873.67047	-719.12231	324.67581	866.94379	-719.77075	377.26871	800.73389	-1123.42163	320.43054	936.00018	-906.74567	309.04547	932.57098	-1080.56409	131.75871	945.02539	-935.97974	126.58116	944.96051	-1179.67554	336.66418	610.08740	-1159.93652	351.22925	477.81534	-1167.49768	315.80707	289.29138	-1111.60486	312.32535	70.76461	-1058.87244	269.60626	40.88704	-1108.80054	462.34308	38.90177	-840.76404	262.02512	593.94843	-853.55957	258.88593	436.16177	-853.69330	109.49780	342.53949	-901.73383	-41.03564	202.38509	-959.91693	-89.69856	215.60052	-906.20483	-5.56664	59.58591	-1022.75848	265.22690	1716.90662	-3101.95361	1973.06030	1023.48346	-3140.64233	2012.56262	1021.89612			 
156	1.550	-1113.61841	288.92059	1676.03931	-999.43353	293.45697	1689.36963	-1110.18225	186.08229	1604.62048	-989.43829	187.70642	1616.52881	-1053.33606	173.97849	1429.42004	-1025.15027	148.91360	1138.00000	-1048.40796	322.18616	1370.39404	-1043.76282	371.58481	1216.95117	-959.49030	129.48361	1239.75781	-1211.07007	260.85754	1386.39502	-1287.99573	239.59837	1196.59668	-1280.57263	224.17566	1048.27441	-1298.95325	257.09698	938.68457	-1270.37744	324.95789	818.41736	-1299.95020	272.56381	817.11719	-1300.53662	314.43817	742.65277	-898.43146	259.09396	1404.29980	-781.17999	213.84554	1211.42480	-770.57935	220.92159	1084.86377	-739.55164	269.60147	972.74829	-762.69513	368.09470	872.39624	-721.21747	328.03662	866.28394	-722.36896	379.57730	799.08112	-1124.66467	328.63904	936.54822	-907.80542	317.60904	933.69775	-1082.00684	140.01709	945.70520	-937.45142	134.70641	944.79901	-1180.99072	340.84076	609.79010	-1161.16785	354.43817	477.31931	-1168.32397	317.81488	289.16928	-1111.77026	312.45773	70.70107	-1059.00342	269.61655	41.06754	-1109.03650	462.81403	38.68881	-842.08014	276.54138	595.24506	-854.81012	277.47351	437.33008	-855.41461	127.83609	344.36307	-904.72595	-24.08664	207.00244	-963.61426	-72.77436	219.91750	-905.40448	10.60268	64.72482	-1024.87769	274.50769	1717.75330	-3101.98462	1973.13586	1023.50519	-3140.46582	2012.56104	1022.04309			 
